<svg
  width="160"
  height="186"
  viewBox="0 0 160 186"
  fill="none"
  xmlns="http://www.w3.org/2000/svg"
>
  <path
    d="M159.974 128.23V57.7431C159.974 49.7027 155.869 42.2788 149.198 38.2586L90.7761 3.01513C84.1052 -1.00504 75.8948 -1.00504 69.2239 3.01513L10.7761 38.2586C4.1052 42.2788 0 49.7027 0 57.7431V128.23C0 136.27 4.1052 143.694 10.7761 147.741L69.2239 182.985C75.8948 187.005 84.1052 187.005 90.7761 182.985L149.224 147.741C155.895 143.721 160 136.297 160 128.257L159.974 128.23Z"
    fill="url(#paint0_linear_20420_44144)"
  />
  <path
    d="M133.074 50.7938L124.392 45.7348L106.415 56.223L91.496 64.8604L87.9496 66.9581L18 107.677V117.795C18 124.458 21.5464 130.628 27.294 133.959L35.9766 139.018L106.415 98.0526V107.801L44.2922 143.954L70.9514 159.501C76.699 162.833 83.6695 162.833 89.4171 159.501L106.415 149.63L133.074 134.083C138.822 130.751 142.368 124.582 142.368 117.919V66.9581C142.368 60.295 138.822 54.1254 133.074 50.7938Z"
    fill="white"
  />
  <path
    d="M43.9252 41.1693L27.4161 50.7938C21.6685 54.1254 18.1221 60.2949 18.1221 66.958V97.9292L79.756 62.0224L43.9252 41.1693Z"
    fill="white"
  />
  <path
    d="M106.417 46.4752L116.078 40.9226L106.417 35.37L89.4184 25.4987C83.6708 22.1671 76.7003 22.1671 70.9527 25.4987L52.1201 36.4805L87.9509 57.3336L106.417 46.4752Z"
    fill="white"
  />
  <defs>
    <linearGradient
      id="paint0_linear_20420_44144"
      x1="775.398"
      y1="-906.229"
      x2="996.959"
      y2="-699.516"
      gradientUnits="userSpaceOnUse"
    >
      <stop stop-color="#00FBFF" />
      <stop offset="0.776042" stop-color="#9000FF" />
    </linearGradient>
  </defs>
</svg>
