<svg
  width="17"
  height="18"
  viewBox="0 0 17 18"
  fill="none"
  xmlns="http://www.w3.org/2000/svg"
>
  <g filter="url(#filter0_bd_13678_57993)">
    <path
      d="M13.4348 9.36674C13.939 9.86993 14.8 9.51278 14.8 8.80039V0.800078C14.8 0.358207 14.4418 0 13.9999 0H5.9996C5.28722 0 4.93007 0.860952 5.43326 1.36522L7.83131 3.76837L2.66281 8.93688C1.77907 9.82062 1.77906 11.2535 2.66281 12.1372C3.54655 13.0209 4.97938 13.0209 5.86312 12.1372L11.0316 6.96868L13.4348 9.36674Z"
      fill="black"
    />
  </g>
  <path
    fill-rule="evenodd"
    clip-rule="evenodd"
    d="M11.0304 4.70692L4.73164 11.0057C4.4728 11.2646 4.05313 11.2646 3.79429 11.0057C3.53545 10.7469 3.53545 10.3272 3.79429 10.0684L10.0931 3.76957L7.92827 1.60016H13.1998V6.87173L11.0304 4.70692ZM11.0316 6.96868L5.86312 12.1372C4.97938 13.0209 3.54655 13.0209 2.66281 12.1372C1.77906 11.2535 1.77907 9.82062 2.66281 8.93688L7.83131 3.76837L5.43326 1.36522C4.93007 0.860952 5.28722 0 5.9996 0H13.9999C14.4418 0 14.8 0.358207 14.8 0.800078V8.80039C14.8 9.51278 13.939 9.86993 13.4348 9.36674L11.0316 6.96868Z"
    fill="white"
  />
  <defs>
    <filter
      id="filter0_bd_13678_57993"
      x="-63"
      y="-65"
      width="142.8"
      height="142.8"
      filterUnits="userSpaceOnUse"
      color-interpolation-filters="sRGB"
    >
      <feFlood flood-opacity="0" result="BackgroundImageFix" />
      <feGaussianBlur in="BackgroundImageFix" stdDeviation="32.5" />
      <feComposite
        in2="SourceAlpha"
        operator="in"
        result="effect1_backgroundBlur_13678_57993"
      />
      <feColorMatrix
        in="SourceAlpha"
        type="matrix"
        values="0 0 0 0 0 0 0 0 0 0 0 0 0 0 0 0 0 0 127 0"
        result="hardAlpha"
      />
      <feMorphology
        radius="1"
        operator="dilate"
        in="SourceAlpha"
        result="effect2_dropShadow_13678_57993"
      />
      <feOffset dy="3" />
      <feGaussianBlur stdDeviation="0.5" />
      <feColorMatrix
        type="matrix"
        values="0 0 0 0 0 0 0 0 0 0 0 0 0 0 0 0 0 0 0.01 0"
      />
      <feBlend
        mode="normal"
        in2="effect1_backgroundBlur_13678_57993"
        result="effect2_dropShadow_13678_57993"
      />
      <feBlend
        mode="normal"
        in="SourceGraphic"
        in2="effect2_dropShadow_13678_57993"
        result="shape"
      />
    </filter>
  </defs>
</svg>
