<svg
  width="20"
  height="18"
  viewBox="0 0 20 18"
  fill="none"
  xmlns="http://www.w3.org/2000/svg"
>
  <g filter="url(#filter0_bd_13678_57985)">
    <path
      d="M9.19822 0.801765C9.19822 0.0889008 8.33634 -0.268105 7.83226 0.235961L2.23437 5.83375C1.92188 6.14623 1.92188 6.65287 2.23437 6.96536L7.83227 12.5631C8.33634 13.0672 9.19822 12.7102 9.19822 11.9973V8.80004H15.5995C16.9253 8.80004 18 7.72531 18 6.39955C18 5.0738 16.9253 3.99907 15.5995 3.99907H9.19822V0.801765Z"
      fill="black"
    />
  </g>
  <path
    fill-rule="evenodd"
    clip-rule="evenodd"
    d="M7.5979 5.59939H15.5995C16.0414 5.59939 16.3997 5.95764 16.3997 6.39955C16.3997 6.84147 16.0414 7.19972 15.5995 7.19972H7.5979V10.0656L3.93177 6.39955L7.5979 2.7335V5.59939ZM9.19822 0.801765C9.19822 0.0889008 8.33634 -0.268105 7.83226 0.235961L2.23437 5.83375C1.92188 6.14623 1.92188 6.65287 2.23437 6.96536L7.83227 12.5631C8.33634 13.0672 9.19822 12.7102 9.19822 11.9973V8.80004H15.5995C16.9253 8.80004 18 7.72531 18 6.39955C18 5.0738 16.9253 3.99907 15.5995 3.99907H9.19822V0.801765Z"
    fill="white"
  />
  <defs>
    <filter
      id="filter0_bd_13678_57985"
      x="-63"
      y="-65"
      width="146"
      height="142.799"
      filterUnits="userSpaceOnUse"
      color-interpolation-filters="sRGB"
    >
      <feFlood flood-opacity="0" result="BackgroundImageFix" />
      <feGaussianBlur in="BackgroundImageFix" stdDeviation="32.5" />
      <feComposite
        in2="SourceAlpha"
        operator="in"
        result="effect1_backgroundBlur_13678_57985"
      />
      <feColorMatrix
        in="SourceAlpha"
        type="matrix"
        values="0 0 0 0 0 0 0 0 0 0 0 0 0 0 0 0 0 0 127 0"
        result="hardAlpha"
      />
      <feMorphology
        radius="1"
        operator="dilate"
        in="SourceAlpha"
        result="effect2_dropShadow_13678_57985"
      />
      <feOffset dy="3" />
      <feGaussianBlur stdDeviation="0.5" />
      <feColorMatrix
        type="matrix"
        values="0 0 0 0 0 0 0 0 0 0 0 0 0 0 0 0 0 0 0.01 0"
      />
      <feBlend
        mode="normal"
        in2="effect1_backgroundBlur_13678_57985"
        result="effect2_dropShadow_13678_57985"
      />
      <feBlend
        mode="normal"
        in="SourceGraphic"
        in2="effect2_dropShadow_13678_57985"
        result="shape"
      />
    </filter>
  </defs>
</svg>
