<svg
  width="14"
  height="21"
  viewBox="0 0 14 21"
  fill="none"
  xmlns="http://www.w3.org/2000/svg"
>
  <g filter="url(#filter0_bd_13678_57899)">
    <path
      fill-rule="evenodd"
      clip-rule="evenodd"
      d="M2 1.71429C2 0.767512 2.76751 0 3.71429 0C4.79537 0 5.7888 0.375268 6.57143 1.00265C7.35406 0.375268 8.34749 0 9.42857 0C10.3753 0 11.1429 0.767512 11.1429 1.71429C11.1429 2.66106 10.3753 3.42857 9.42857 3.42857C8.79739 3.42857 8.28571 3.94025 8.28571 4.57143V11.4286C8.28571 12.0598 8.79739 12.5714 9.42857 12.5714C10.3753 12.5714 11.1429 13.3389 11.1429 14.2857C11.1429 15.2325 10.3753 16 9.42857 16C8.34749 16 7.35406 15.6247 6.57143 14.9974C5.7888 15.6247 4.79537 16 3.71429 16C2.76751 16 2 15.2325 2 14.2857C2 13.3389 2.76751 12.5714 3.71429 12.5714C4.34547 12.5714 4.85714 12.0598 4.85714 11.4286V4.57143C4.85714 3.94025 4.34547 3.42857 3.71429 3.42857C2.76751 3.42857 2 2.66106 2 1.71429Z"
      fill="black"
    />
  </g>
  <path
    fill-rule="evenodd"
    clip-rule="evenodd"
    d="M6.57143 2.46738L5.85661 1.89436C5.26942 1.42365 4.52621 1.14286 3.71429 1.14286C3.39869 1.14286 3.14286 1.39869 3.14286 1.71429C3.14286 2.02988 3.39869 2.28571 3.71429 2.28571C4.97665 2.28571 6 3.30906 6 4.57143V11.4286C6 12.6909 4.97665 13.7143 3.71429 13.7143C3.39869 13.7143 3.14286 13.9701 3.14286 14.2857C3.14286 14.6013 3.39869 14.8571 3.71429 14.8571C4.52621 14.8571 5.26942 14.5763 5.85661 14.1056L6.57143 13.5326L7.28625 14.1056C7.87344 14.5763 8.61665 14.8571 9.42857 14.8571C9.74416 14.8571 10 14.6013 10 14.2857C10 13.9701 9.74416 13.7143 9.42857 13.7143C8.16621 13.7143 7.14286 12.6909 7.14286 11.4286V4.57143C7.14286 3.30906 8.16621 2.28571 9.42857 2.28571C9.74416 2.28571 10 2.02988 10 1.71429C10 1.39869 9.74416 1.14286 9.42857 1.14286C8.61665 1.14286 7.87344 1.42365 7.28625 1.89436L6.57143 2.46738ZM6.57143 1.00265C5.7888 0.375268 4.79537 0 3.71429 0C2.76751 0 2 0.767512 2 1.71429C2 2.66106 2.76751 3.42857 3.71429 3.42857C4.34547 3.42857 4.85714 3.94025 4.85714 4.57143V11.4286C4.85714 12.0598 4.34547 12.5714 3.71429 12.5714C2.76751 12.5714 2 13.3389 2 14.2857C2 15.2325 2.76751 16 3.71429 16C4.79537 16 5.7888 15.6247 6.57143 14.9974C7.35406 15.6247 8.34749 16 9.42857 16C10.3753 16 11.1429 15.2325 11.1429 14.2857C11.1429 13.3389 10.3753 12.5714 9.42857 12.5714C8.79739 12.5714 8.28571 12.0598 8.28571 11.4286V4.57143C8.28571 3.94025 8.79739 3.42857 9.42857 3.42857C10.3753 3.42857 11.1429 2.66106 11.1429 1.71429C11.1429 0.767512 10.3753 0 9.42857 0C8.34749 0 7.35406 0.375268 6.57143 1.00265Z"
    fill="white"
  />
  <defs>
    <filter
      id="filter0_bd_13678_57899"
      x="-63"
      y="-65"
      width="139.143"
      height="146"
      filterUnits="userSpaceOnUse"
      color-interpolation-filters="sRGB"
    >
      <feFlood flood-opacity="0" result="BackgroundImageFix" />
      <feGaussianBlur in="BackgroundImageFix" stdDeviation="32.5" />
      <feComposite
        in2="SourceAlpha"
        operator="in"
        result="effect1_backgroundBlur_13678_57899"
      />
      <feColorMatrix
        in="SourceAlpha"
        type="matrix"
        values="0 0 0 0 0 0 0 0 0 0 0 0 0 0 0 0 0 0 127 0"
        result="hardAlpha"
      />
      <feMorphology
        radius="1"
        operator="dilate"
        in="SourceAlpha"
        result="effect2_dropShadow_13678_57899"
      />
      <feOffset dy="3" />
      <feGaussianBlur stdDeviation="0.5" />
      <feColorMatrix
        type="matrix"
        values="0 0 0 0 0 0 0 0 0 0 0 0 0 0 0 0 0 0 0.01 0"
      />
      <feBlend
        mode="normal"
        in2="effect1_backgroundBlur_13678_57899"
        result="effect2_dropShadow_13678_57899"
      />
      <feBlend
        mode="normal"
        in="SourceGraphic"
        in2="effect2_dropShadow_13678_57899"
        result="shape"
      />
    </filter>
  </defs>
</svg>
