<svg
  width="160"
  height="186"
  viewBox="0 0 160 186"
  fill="none"
  xmlns="http://www.w3.org/2000/svg"
>
  <path
    d="M159.974 128.23V57.7431C159.974 49.7027 155.869 42.2788 149.198 38.2586L90.7761 3.01513C84.1052 -1.00504 75.8948 -1.00504 69.2239 3.01513L10.7761 38.2586C4.1052 42.2788 0 49.7027 0 57.7431V128.23C0 136.27 4.1052 143.694 10.7761 147.741L69.2239 182.985C75.8948 187.005 84.1052 187.005 90.7761 182.985L149.224 147.741C155.895 143.721 160 136.297 160 128.257L159.974 128.23Z"
    fill="url(#paint0_linear_20421_44242)"
  />
  <path
    d="M130.279 53.3985L122.034 48.5942L104.963 58.5543L90.7947 66.7567L87.427 68.7487L21 107.417V117.026C21 123.353 24.3678 129.212 29.826 132.376L38.0713 137.18L104.963 98.2773V107.534L45.9682 141.867L71.2847 156.632C76.7429 159.795 83.3624 159.795 88.8205 156.632L104.963 147.257L130.279 132.493C135.737 129.329 139.105 123.47 139.105 117.143V68.7487C139.105 62.4211 135.737 56.5623 130.279 53.3985Z"
    fill="white"
  />
  <path
    d="M45.6199 44.2587L29.9422 53.3985C24.484 56.5623 21.1162 62.4212 21.1162 68.7487V98.1602L79.6463 64.0617L45.6199 44.2587Z"
    fill="white"
  />
  <path
    d="M104.963 49.2973L114.137 44.0244L104.963 38.7514L88.8204 29.3772C83.3622 26.2134 76.7427 26.2134 71.2846 29.3772L53.4004 39.806L87.4268 59.6089L104.963 49.2973Z"
    fill="white"
  />
  <defs>
    <linearGradient
      id="paint0_linear_20421_44242"
      x1="80"
      y1="0"
      x2="80"
      y2="186"
      gradientUnits="userSpaceOnUse"
    >
      <stop stop-color="#008B65" />
      <stop offset="1" stop-color="#96DEC3" />
    </linearGradient>
  </defs>
</svg>
